# xmcd
#
# Track frame offsets:
#	150
#	22786
#	36466
#	54215
#	73706
#	98009
#	116379
#	130166
#
# Disc length: 2037 seconds
#
# Revision: 0
# Processed by: cddbd v1.5.2PL0 Copyright (c) Steve Scherf et al.
# Submitted via: EasyCDDAExtractor 12.0.1.1
#
DISCID=5e07f308
DTITLE=Bob Weir - Heaven Help the Fool
DYEAR=1978
DGENRE=Classic Rock
TTITLE0=Bombs Away
TTITLE1=Easy to Slip
TTITLE2=Salt Lake City
TTITLE3=Shade of Grey
TTITLE4=Heaven Help the Fool
TTITLE5=This Time Forever
TTITLE6=Ill Be Doggone
TTITLE7=Wrong Way Feelin
EXTD=
EXTT0=
EXTT1=
EXTT2=
EXTT3=
EXTT4=
EXTT5=
EXTT6=
EXTT7=
PLAYORDER=
